# xmcd
#
# Track frame offsets:
#	150
#	2127
#	20135
#	44385
#	66492
#	90552
#	112782
#	131107
#	147840
#	171622
#	187417
#	210447
#	224132
#	252172
#	269427
#	292577
#
# Disc length: 4257 seconds
#
# Revision: 0
# Processed by: cddbd v1.5.1PL0 Copyright (c) Steve Scherf et al.
# Submitted via: dBpowerAMP V4.0
#
DISCID=fd109f10
DTITLE=Indiana Bible College Choir and Chorale - The Power Of God
DYEAR=1993
DGENRE=Religious
TTITLE0=Intro
TTITLE1=Come Bring The Praise
TTITLE2=Basics Of Life
TTITLE3=In Christ Alone
TTITLE4=Jesus Rescues Me
TTITLE5=Mercy Seat
TTITLE6=Celebrate Jesus
TTITLE7=My Faith Still Stands
TTITLE8=That's Why I Needed You
TTITLE9=Wipe A Tear
TTITLE10=Love Can Build A Bridge
TTITLE11=Power Of Praise
TTITLE12=Heaven For Me
TTITLE13=It's Still America
TTITLE14=Holy Ghost Revival
TTITLE15=It Will Take The Power Of God
EXTD=
EXTT0=
EXTT1=
EXTT2=
EXTT3=
EXTT4=
EXTT5=
EXTT6=
EXTT7=
EXTT8=
EXTT9=
EXTT10=
EXTT11=
EXTT12=
EXTT13=
EXTT14=
EXTT15=
PLAYORDER=
